<?xml version="1.0" encoding="UTF-8" standalone="no"?><!DOCTYPE svg PUBLIC "-//W3C//DTD SVG 1.1//EN" "http://www.w3.org/Graphics/SVG/1.1/DTD/svg11.dtd"><svg width="100%" height="100%" viewBox="0 0 3500 1000" version="1.1" xmlns="http://www.w3.org/2000/svg" xmlns:xlink="http://www.w3.org/1999/xlink" xml:space="preserve" xmlns:serif="http://www.serif.com/" style="fill-rule:evenodd;clip-rule:evenodd;stroke-linejoin:round;stroke-miterlimit:2;"><g id="Layer2"><path d="M1000,195.525c0,-107.913 -87.612,-195.525 -195.525,-195.525l-608.95,0c-107.913,0 -195.525,87.612 -195.525,195.525l0,608.95c0,107.913 87.612,195.525 195.525,195.525l608.95,0c107.913,0 195.525,-87.612 195.525,-195.525l0,-608.95Z" style="fill:#3e4c6b;"/></g><g id="Layer1"><path d="M153.53,706.897l346.47,0l0,95.954l-37.989,0l0,129.429l-65.89,0l0,-129.429l-69.356,0l0,151.779l-73.141,0l0,-196.606l-100.094,0l0,-51.127Z" style="fill:#b9bdc9;"/><path d="M846.47,706.897l-346.47,0l0,95.954l37.989,0l0,129.429l65.89,0l0,-129.429l69.356,0l0,151.779l73.141,0l0,-196.606l100.094,0l0,-51.127Z" style="fill:#878fa3;"/><rect x="88.841" y="649.97" width="411.159" height="32.331" style="fill:#b9bdc9;"/><rect x="500" y="649.97" width="411.159" height="32.331" style="fill:#878fa3;"/><path d="M245.911,126.611l0,-81.982l254.089,81.982l0,42.382l-209.806,-64.464l0,395.471l184.355,72.177l0,-230.998l-120.009,0l0,-53.141l120.009,0l0,-85.768l25.451,0l0,420.858l-290.92,0l-55.55,0l0,-496.517l92.381,0Zm0,27.386l-36.831,0l0,418.18l174.774,0l-137.943,-51.247l0,-366.933Z" style="fill:#b9bdc9;"/><path d="M754.089,126.611l0,-81.982l-254.089,81.982l0,42.382l209.806,-64.464l0,395.471l-184.355,72.177l0,-230.998l120.009,0l0,-53.141l-120.009,0l0,-85.768l-25.451,0l0,420.858l290.92,0l55.55,0l0,-496.517l-92.381,0Zm0,27.386l36.831,0l0,418.18l-174.774,0l137.943,-51.247l0,-366.933Z" style="fill:#878fa3;"/></g><g id="Layer3"><g transform="matrix(1.06661,0,0,1.06661,-151.688,199.014)"><text x="1275.73px" y="176.961px" style="font-family:'Copperplate';font-size:288px;fill:#3e4c6b;">Iglesia Biblica</text><text x="1315.62px" y="533.433px" style="font-family:'Copperplate';font-size:288px;fill:#3e4c6b;">Gracia Eterna</text></g></g></svg>